<?xml version="1.0" encoding="UTF-8" standalone="no"?>
<!-- Created with Inkscape (http://www.inkscape.org/) -->

<svg
   width="160mm"
   height="80mm"
   viewBox="0 0 160 80"
   version="1.1"
   id="svg5"
   inkscape:version="1.3.2 (091e20e, 2023-11-25, custom)"
   sodipodi:docname="venn.svg"
   xmlns:inkscape="http://www.inkscape.org/namespaces/inkscape"
   xmlns:sodipodi="http://sodipodi.sourceforge.net/DTD/sodipodi-0.dtd"
   xmlns:xlink="http://www.w3.org/1999/xlink"
   xmlns="http://www.w3.org/2000/svg"
   xmlns:svg="http://www.w3.org/2000/svg">
  <sodipodi:namedview
     id="namedview7"
     pagecolor="#ffffff"
     bordercolor="#000000"
     borderopacity="0.25"
     inkscape:showpageshadow="2"
     inkscape:pageopacity="0.0"
     inkscape:pagecheckerboard="0"
     inkscape:deskcolor="#d1d1d1"
     inkscape:document-units="mm"
     showgrid="false"
     inkscape:zoom="1.4984147"
     inkscape:cx="310.66166"
     inkscape:cy="163.50614"
     inkscape:window-width="1882"
     inkscape:window-height="1011"
     inkscape:window-x="525"
     inkscape:window-y="330"
     inkscape:window-maximized="0"
     inkscape:current-layer="layer1" />
  <defs
     id="defs2">
    <pattern
       inkscape:collect="always"
       xlink:href="#pattern15"
       preserveAspectRatio="xMidYMid"
       id="pattern16"
       patternTransform="matrix(1.1825074,-0.7099449,0.68619046,1.1429412,8.8440192,51.269776)" />
    <pattern
       inkscape:collect="always"
       patternUnits="userSpaceOnUse"
       width="4"
       height="1"
       patternTransform="translate(0,0) scale(2,2)"
       preserveAspectRatio="xMidYMid"
       id="pattern15"
       style="fill:#000000"
       inkscape:stockid="Stripes 04 (1:3)"
       inkscape:isstock="true"
       inkscape:label="Stripes 04 (1:3)">
      <rect
   style="stroke:none"
   x="0"
   y="-0.5"
   width="1"
   height="2"
   id="rect14" />

    </pattern>
    <linearGradient
       id="linearGradient9"
       inkscape:swatch="gradient">
      <stop
         style="stop-color:#ffffff;stop-opacity:1;"
         offset="0"
         id="stop9" />
      <stop
         style="stop-color:#ffffff;stop-opacity:0;"
         offset="1"
         id="stop10" />
    </linearGradient>
    <pattern
       inkscape:collect="always"
       xlink:href="#Strips1_3"
       preserveAspectRatio="xMidYMid"
       id="pattern8"
       patternTransform="matrix(0.55204541,-0.23405912,0.70494492,1.552752,74.906663,4.4418083)" />
    <pattern
       inkscape:collect="always"
       patternUnits="userSpaceOnUse"
       width="4"
       height="1"
       patternTransform="translate(0,0) scale(2,2)"
       preserveAspectRatio="xMidYMid"
       id="Strips1_3"
       style="fill:#000000"
       inkscape:stockid="Stripes 04 (1:3)"
       inkscape:isstock="true"
       inkscape:label="Stripes 04 (1:3)">
      <rect
   style="stroke:none"
   x="0"
   y="-0.5"
   width="1"
   height="2"
   id="rect152" />

    </pattern>
    <pattern
       inkscape:collect="always"
       xlink:href="#Strips1_4"
       preserveAspectRatio="xMidYMid"
       id="pattern6"
       patternTransform="matrix(0.89333509,-0.46553338,0.48172822,0.86330277,5.3817291,24.274253)" />
    <pattern
       inkscape:collect="always"
       xlink:href="#Strips1_4"
       preserveAspectRatio="xMidYMid"
       id="pattern5"
       patternTransform="matrix(0.88736194,-0.4760825,0.49264432,0.85753041,9.0622009,1.0923796)"
       x="0"
       y="0" />
    <pattern
       inkscape:collect="always"
       patternUnits="userSpaceOnUse"
       width="5"
       height="1"
       patternTransform="translate(0,0) scale(2,2)"
       preserveAspectRatio="xMidYMid"
       id="Strips1_4"
       style="fill:#000000"
       inkscape:stockid="Stripes 05 (1:4)"
       inkscape:isstock="true"
       inkscape:label="Stripes 05 (1:4)">
      <rect
   style="stroke:none"
   x="0"
   y="-0.5"
   width="1"
   height="2"
   id="rect158" />

    </pattern>
  </defs>
  <g
     inkscape:label="Layer 1"
     inkscape:groupmode="layer"
     id="layer1">
    <ellipse
       style="fill:url(#pattern5);fill-opacity:1;stroke:#000000;stroke-width:0.18179;stroke-linecap:square;stroke-linejoin:round;paint-order:stroke fill markers"
       id="path1"
       cx="40.550632"
       cy="20.362595"
       rx="15.88667"
       ry="15.608864" />
    <ellipse
       style="fill:url(#pattern6);fill-opacity:1;stroke:#000000;stroke-width:0.18179;stroke-linecap:square;stroke-linejoin:round;paint-order:stroke fill markers"
       id="path2"
       cx="56.376194"
       cy="20.662766"
       rx="16.192181"
       ry="15.909038" />
    <text
       xml:space="preserve"
       style="font-size:4.77283px;fill:none;stroke:#000000;stroke-width:0.325931;stroke-linecap:square;stroke-linejoin:round;paint-order:stroke fill markers"
       x="33.582653"
       y="5.1902761"
       id="text2"
       transform="scale(1.1200103,0.89284893)"><tspan
         sodipodi:role="line"
         id="tspan2"
         style="stroke-width:0.325933"
         x="33.582653"
         y="5.1902761">A</tspan></text>
    <text
       xml:space="preserve"
       style="font-size:3.98694px;fill:none;stroke:#000000;stroke-width:0.272264;stroke-linecap:square;stroke-linejoin:round;paint-order:stroke fill markers"
       x="56.37104"
       y="4.4121022"
       id="text3"
       transform="scale(1.0025846,0.99742204)"><tspan
         sodipodi:role="line"
         id="tspan3"
         style="stroke-width:0.272264"
         x="56.37104"
         y="4.4121022">B</tspan></text>
    <text
       xml:space="preserve"
       style="font-size:3.27403px;fill:none;stroke:#000000;stroke-width:0.22358;stroke-linecap:square;stroke-linejoin:round;paint-order:stroke fill markers"
       x="45.12085"
       y="35.013767"
       id="text4"
       transform="scale(0.88874171,1.1251863)"><tspan
         sodipodi:role="line"
         id="tspan4"
         style="stroke-width:0.223581"
         x="45.12085"
         y="35.013767">A $\cup$ B</tspan></text>
    <ellipse
       style="fill:none;fill-opacity:1;stroke:#000000;stroke-width:0.18179;stroke-linecap:square;stroke-linejoin:round;paint-order:stroke fill markers"
       id="path1-9"
       cx="111.43355"
       cy="20.866611"
       rx="15.88667"
       ry="15.608867" />
    <ellipse
       style="fill:none;fill-opacity:1;stroke:#000000;stroke-width:0.18179;stroke-linecap:square;stroke-linejoin:round;paint-order:stroke fill markers"
       id="path2-3"
       cx="127.25912"
       cy="21.166784"
       rx="16.192183"
       ry="15.909038" />
    <text
       xml:space="preserve"
       style="font-size:4.77284px;fill:none;stroke:#000000;stroke-width:0.325931;stroke-linecap:square;stroke-linejoin:round;paint-order:stroke fill markers"
       x="96.870415"
       y="5.7547727"
       id="text2-8"
       transform="scale(1.1200102,0.89284901)"><tspan
         sodipodi:role="line"
         id="tspan2-4"
         style="stroke-width:0.325933"
         x="96.870415"
         y="5.7547727">A</tspan></text>
    <text
       xml:space="preserve"
       style="font-size:3.98694px;fill:none;stroke:#000000;stroke-width:0.272264;stroke-linecap:square;stroke-linejoin:round;paint-order:stroke fill markers"
       x="127.07124"
       y="4.9174166"
       id="text3-1"
       transform="scale(1.0025846,0.99742207)"><tspan
         sodipodi:role="line"
         id="tspan3-0"
         style="stroke-width:0.272265"
         x="127.07124"
         y="4.9174166">B</tspan></text>
    <text
       xml:space="preserve"
       style="font-size:3.27404px;fill:none;stroke:#000000;stroke-width:0.22358;stroke-linecap:square;stroke-linejoin:round;paint-order:stroke fill markers"
       x="124.87735"
       y="35.4617"
       id="text4-8"
       transform="scale(0.88874156,1.1251865)"><tspan
         sodipodi:role="line"
         id="tspan4-4"
         style="stroke-width:0.223581"
         x="124.87735"
         y="35.4617">A $\cap$ B</tspan></text>
    <path
       style="fill:url(#pattern8);fill-opacity:1;stroke:#ffffff;stroke-width:0.22573;stroke-linecap:square;stroke-linejoin:round;stroke-opacity:1;paint-order:stroke fill markers"
       d="m 119.17533,7.3303183 c -0.26185,0.5328153 -0.52074,0.1605222 -0.89017,0.3390268 -0.0456,0.02204 -0.26148,0.5573583 -0.29752,0.5922083 -0.0807,0.07793 -0.204,0.09857 -0.30601,0.14786 -0.1224,0.05914 -0.33661,-0.05914 -0.45901,0 -0.63675,0.307678 0.16357,-0.01021 -0.153,0.29572 -0.0721,0.0697 -0.23388,-0.0697 -0.306,0 -0.0361,0.03485 0.0361,0.113008 0,0.147858 -0.31658,0.305928 0.0124,-0.467496 -0.30602,0.147861 -0.0456,0.08817 0.0721,0.226018 0,0.295721 -0.0612,0.05918 -0.19444,0.08008 -0.306,0.295718 -0.0463,0.08928 0.0707,0.375229 0,0.4435786 -0.0361,0.03486 -0.10737,-0.02205 -0.15301,0 -0.28635,0.138361 -1.23632,1.075171 -1.31445,1.226186 -0.14084,0.272212 -0.0748,0.128056 -0.21558,0.400272 -0.0456,0.08817 0.0456,0.207552 0,0.29572 -0.0828,0.16015 -0.5887,0.335836 -0.76501,0.591438 -0.0479,0.06944 -0.1051,0.374134 -0.15301,0.443579 -0.0799,0.115991 -0.2415,0.171033 -0.30601,0.295717 -0.0777,0.150052 -0.12226,0.709599 -0.153,0.739301 -0.0361,0.03485 -0.11695,-0.03486 -0.15301,0 -0.036,0.03485 0.0228,0.103776 0,0.14786 -0.0644,0.124686 -0.24149,0.171033 -0.30601,0.295721 -0.0461,0.08928 0.0707,0.375226 0,0.443576 -0.0361,0.03486 -0.11693,-0.03485 -0.153,0 -0.1213,0.117223 0.0778,0.58886 0,0.7393 -0.31837,0.615358 0.0105,-0.158067 -0.306,0.147862 -0.14248,0.137682 0.0702,0.523519 -0.15301,0.739297 -0.204,0.197147 -0.14682,-0.313658 -0.30601,0.14786 -0.0664,0.192514 0.0936,0.558275 0,0.739299 -0.0228,0.04407 -0.13019,-0.04407 -0.15299,0 -0.0456,0.08817 0.0323,0.202204 0,0.295718 -0.0228,0.06613 -0.12076,0.08551 -0.15301,0.14786 -0.0684,0.132251 0.0684,0.311329 0,0.44358 -0.0228,0.04407 -0.11694,-0.03486 -0.15299,0 -0.036,0.03485 0.0228,0.103776 0,0.147858 -0.0323,0.06234 -0.13553,0.08022 -0.15302,0.14786 -0.0495,0.191262 0.14425,0.452038 0,0.59144 -0.036,0.03486 -0.13019,-0.04407 -0.15299,0 -0.1169,0.225919 0.08,3.336883 0.15299,3.548634 0.016,0.04675 0.11694,-0.03485 0.15302,0 0.0614,0.05938 -0.0289,0.359954 0,0.443579 0.0864,0.250287 0.23994,0.483936 0.306,0.7393 0.14226,0.54991 -0.0378,1.073379 0.15299,1.626456 0.0323,0.09352 -0.0456,0.207554 0,0.29572 0.0891,0.172237 0.21689,0.27134 0.30601,0.443579 0.0812,0.157029 0.0166,0.459634 0.15301,0.591441 0.036,0.03486 0.11694,-0.03485 0.153,0 0.0566,0.05481 0.10574,0.500089 0.153,0.591436 0.0644,0.124687 0.2415,0.171035 0.306,0.295721 0.0228,0.04407 -0.0361,0.113008 0,0.14786 0.0721,0.0697 0.16628,0.649095 0.2384,0.718799 0.18342,0.17726 0.40331,0.674196 0.48101,0.899458 0.0323,0.09351 0.17063,0.241412 0.20286,0.334926 0.0947,0.274439 0.3119,0.338112 0.44548,0.59631 0.0456,0.08817 0.23837,0.220608 0.284,0.308788 0.0891,0.172224 0.0952,-0.369043 0.1843,-0.196806 0.0611,0.118286 -0.0611,0.325291 0,0.443578 0.10247,0.198038 0.28387,0.387846 0.37788,0.47869 0.0721,0.0697 0.009,0.04304 0.081,0.112751 0.0361,0.03485 -0.18821,-0.164864 0.15299,0 0.3412,0.164862 -0.0496,0.0999 0.15301,0.295718 0.20263,0.195818 0.26638,0.314573 0.35506,0.400273 0.0361,0.03485 0.23416,-7.76e-4 0.25694,0.0433 0.3184,0.615356 -0.0105,-0.158069 0.30602,0.14786 0.0806,0.07793 0.0723,0.217789 0.15301,0.29572 0.036,0.03485 0.11694,-0.03486 0.15299,0 0.0361,0.03485 -0.036,0.113008 0,0.14786 0.0361,0.03485 0.11695,-0.03486 0.15302,0 0.0973,0.09409 0.20834,0.402679 0.306,0.591438 0.31838,0.615357 -0.0105,-0.158068 0.30601,0.147859 0.0765,0.07393 0.0765,0.221789 0.153,0.29572 0.0721,0.0697 0.23389,-0.0697 0.306,0 0.0361,0.03485 -0.036,0.113009 0,0.147859 0.0721,0.0697 0.23389,-0.0697 0.306,0 0.0152,0.01477 0.11732,0.330222 0.30601,0.147859 0.0361,-0.03485 -0.036,-0.113008 0,-0.147859 0.0721,-0.0697 0.0175,0.331083 0.0896,0.261381 0.14282,-0.138029 0.15416,0.217731 0.27896,0.09712 0.0721,-0.0697 0.23388,-0.217817 0.306,-0.28752 0.31657,-0.305928 -0.24682,0.284084 0.3694,-0.06048 0.26326,-0.147208 -0.43433,0.854676 0.79204,-0.722131 0.0456,-0.02205 0.22515,-0.174253 0.2612,-0.209105 0.0361,-0.03486 0.42376,-0.08687 0.4598,-0.121721 0.0614,-0.05938 0.23725,-0.155091 0.32378,-0.182968 0.18846,-0.06071 0.60484,-0.550158 0.74645,-0.687021 0.0361,-0.03486 0.36968,-0.2437 0.40573,-0.27855 0.0721,-0.0697 0.31368,-0.330824 0.40491,-0.374903 0.5236,-0.253007 0.58106,-0.66532 0.96283,-1.034248 0.0735,-0.07097 0.16556,-0.596145 0.26039,-0.687793 0.0873,-0.08432 0.37577,-0.300063 0.45053,-0.408473 0.21025,-0.304776 0.18305,-0.372511 0.3145,-0.626546 0.0456,-0.08817 0.27898,-0.416658 0.32456,-0.504823 0.25471,-0.407905 0.2851,-0.235833 0.44046,-0.678055 0.0492,-0.140017 -0.0684,-0.311329 0,-0.443579 0.16076,-0.310734 0.0789,-0.448289 0.15299,-0.59144 0.0659,-0.127301 0.27131,-0.309446 0.30601,-0.443578 0.037,-0.143445 -0.0483,-0.30331 0,-0.443581 0.016,-0.04676 0.11694,0.03486 0.153,0 0.0807,-0.07792 0.10201,-0.197145 0.15302,-0.295718 0.0874,-0.169203 0.24869,-1.127496 0.30601,-1.182879 0.0807,-0.07793 0.23758,-0.05969 0.306,-0.147858 0.32469,-0.41839 0.019,-0.498837 0.15299,-0.88716 0.0228,-0.06613 0.1302,-0.08173 0.15301,-0.147861 0.0664,-0.192782 0.0864,-0.398652 0.153,-0.591437 0.12696,-0.368041 -0.014,-3.87129 -0.153,-4.140073 -0.0645,-0.124686 -0.226,-0.179729 -0.306,-0.295719 -0.11972,-0.173527 -0.0655,-0.570117 -0.15302,-0.739299 -0.0228,-0.04408 -0.12471,0.04101 -0.15298,0 -0.12381,-0.179443 -0.43833,-1.226815 -0.61203,-1.478596 -0.0282,-0.04102 0.28877,-0.304946 0.25271,-0.339797 -0.12859,-0.124264 -0.34948,-0.384258 -0.40571,-0.547365 -0.0228,-0.06612 -0.13021,-0.08173 -0.15301,-0.147859 -0.35011,-1.015044 0.58584,0.688716 -0.15299,-0.739298 -0.17749,-0.343036 -0.44291,-0.708147 -0.61203,-1.035018 -0.10074,-0.194721 0.0716,-0.531784 0,-0.739299 -0.0673,-0.195453 -0.36148,-0.402966 -0.45899,-0.591438 -0.0464,-0.0896 -0.0889,-0.381621 -0.15302,-0.443581 -0.0361,-0.03485 -0.11694,0.03486 -0.153,0 -0.0721,-0.0697 0.0456,-0.207553 0,-0.295719 -0.0325,-0.06267 -1.10669,-0.9783186 -1.22402,-1.0350176 -0.37685,-0.182086 0.13811,0.4291966 -0.45901,-0.147859 -0.0361,-0.03485 0.0361,-0.113009 0,-0.14786 -0.0347,-0.03353 -0.65552,-0.364209 -0.76503,-0.443579 -0.40124,-0.290823 -1.2711,-1.4122509 -1.68303,-1.4785979 -0.25153,-0.040512 -0.69935,-0.3397963 -0.95436,-0.3397963 z"
       id="path6"
       sodipodi:nodetypes="cscsscscccsscsccscsssssssssssssssssssssssssssssssssscccscccszzscsssssssssscssscsscsssssccscccscssscsccscccssccsssssssscssssssc" />
    <rect
       style="fill:none;stroke:#000000;stroke-width:0.22573;stroke-linecap:square;stroke-linejoin:round;stroke-opacity:1;paint-order:stroke fill markers"
       id="rect8"
       width="54.774269"
       height="39.774269"
       x="21.346001"
       y="1.0398185" />
    <rect
       style="fill:none;stroke:#000000;stroke-width:0.22573;stroke-linecap:square;stroke-linejoin:round;stroke-opacity:1;paint-order:stroke fill markers"
       id="rect8-8"
       width="54.774269"
       height="39.774269"
       x="91.982613"
       y="0.89597803" />
    <ellipse
       style="fill:url(#pattern16);fill-opacity:1;stroke:#000000;stroke-width:0.177805;stroke-linecap:square;stroke-linejoin:round;paint-order:stroke fill markers"
       id="path1-9-2"
       cx="75.846764"
       cy="60.403786"
       rx="15.68325"
       ry="15.125746" />
    <ellipse
       style="fill:none;fill-opacity:1;stroke:#000000;stroke-width:0.177805;stroke-linecap:square;stroke-linejoin:round;paint-order:stroke fill markers"
       id="path2-3-4"
       cx="91.469696"
       cy="60.694664"
       rx="15.984851"
       ry="15.416626" />
    <text
       xml:space="preserve"
       style="font-size:4.66822px;fill:none;stroke:#000000;stroke-width:0.318787;stroke-linecap:square;stroke-linejoin:round;paint-order:stroke fill markers"
       x="64.528969"
       y="51.053478"
       id="text2-8-0"
       transform="scale(1.1304487,0.88460449)"><tspan
         sodipodi:role="line"
         id="tspan2-4-3"
         style="stroke-width:0.318788"
         x="64.528969"
         y="51.053478">A</tspan></text>
    <text
       xml:space="preserve"
       style="font-size:3.89955px;fill:none;stroke:#000000;stroke-width:0.266296;stroke-linecap:square;stroke-linejoin:round;paint-order:stroke fill markers"
       x="90.528557"
       y="45.471985"
       id="text3-1-8"
       transform="scale(1.0119287,0.98821192)"><tspan
         sodipodi:role="line"
         id="tspan3-0-7"
         style="stroke-width:0.266297"
         x="90.528557"
         y="45.471985">B</tspan></text>
    <text
       xml:space="preserve"
       style="font-size:3.20227px;fill:none;stroke:#000000;stroke-width:0.218679;stroke-linecap:square;stroke-linejoin:round;paint-order:stroke fill markers"
       x="84.058647"
       y="70.729546"
       id="text4-8-6"
       transform="scale(0.89702463,1.1147966)"><tspan
         sodipodi:role="line"
         id="tspan4-4-6"
         style="stroke-width:0.21868"
         x="84.058647"
         y="70.729546">A $\backslash$ B</tspan></text>
    <path
       style="fill:#ffffff;fill-opacity:1;stroke:#ececec;stroke-width:0.220782;stroke-linecap:square;stroke-linejoin:round;stroke-opacity:1;paint-order:stroke fill markers"
       d="m 83.489423,47.286461 c -0.258497,0.516325 -0.514072,0.155554 -0.878771,0.328534 -0.04502,0.02136 -0.258132,0.540107 -0.293711,0.573878 -0.07967,0.07552 -0.201388,0.09552 -0.302092,0.143284 -0.120832,0.05731 -0.332299,-0.05731 -0.453132,0 -0.628597,0.298154 0.161475,-0.0099 -0.151041,0.286567 -0.07118,0.06754 -0.230885,-0.06754 -0.302082,0 -0.03564,0.03377 0.03564,0.10951 0,0.143281 -0.312526,0.296459 0.01224,-0.453026 -0.302102,0.143285 -0.04502,0.08544 0.07118,0.219022 0,0.286567 -0.06042,0.05735 -0.19195,0.0776 -0.302081,0.286565 -0.04571,0.08652 0.06979,0.363616 0,0.42985 -0.03564,0.03378 -0.105996,-0.02137 -0.151051,0 -0.282684,0.134078 -1.22049,1.041893 -1.297619,1.188233 -0.139037,0.263787 -0.07384,0.124093 -0.21282,0.387883 -0.04502,0.08544 0.04502,0.201128 0,0.286567 -0.08174,0.155193 -0.581162,0.325442 -0.755214,0.573132 -0.04729,0.06729 -0.103755,0.362554 -0.151051,0.42985 -0.07888,0.112401 -0.238408,0.165739 -0.302092,0.286564 -0.07671,0.145408 -0.120695,0.687636 -0.151041,0.716418 -0.03564,0.03377 -0.115452,-0.03378 -0.151051,0 -0.03554,0.03377 0.02251,0.100564 0,0.143284 -0.06358,0.120826 -0.238398,0.165739 -0.302091,0.286568 -0.04551,0.08652 0.06979,0.363612 0,0.429846 -0.03564,0.03378 -0.115433,-0.03377 -0.151041,0 -0.119747,0.113595 0.0768,0.570634 0,0.716418 -0.314294,0.596311 0.01036,-0.153175 -0.302082,0.143285 -0.140656,0.133421 0.0693,0.507315 -0.151051,0.716415 -0.201388,0.191045 -0.14494,-0.30395 -0.302092,0.143283 -0.06555,0.186555 0.0924,0.540996 0,0.716417 -0.02251,0.04271 -0.128523,-0.04271 -0.151031,0 -0.04502,0.08544 0.03189,0.195945 0,0.286565 -0.02251,0.06408 -0.119213,0.08286 -0.151051,0.143283 -0.06752,0.128158 0.06753,0.301693 0,0.429851 -0.02251,0.04271 -0.115442,-0.03378 -0.151031,0 -0.03554,0.03377 0.02251,0.100563 0,0.143281 -0.03189,0.06041 -0.133794,0.07774 -0.15106,0.143284 -0.04887,0.185342 0.142403,0.438046 0,0.573133 -0.03554,0.03378 -0.128523,-0.0427 -0.151031,0 -0.115403,0.218927 0.07897,3.233601 0.151031,3.438798 0.01579,0.0453 0.115442,-0.03377 0.15106,0 0.06061,0.05754 -0.02853,0.348813 0,0.42985 0.08529,0.24254 0.236868,0.468957 0.302082,0.716417 0.140439,0.53289 -0.03732,1.040156 0.151031,1.576115 0.03189,0.09063 -0.04502,0.20113 0,0.286567 0.08796,0.166906 0.214113,0.262941 0.302092,0.429849 0.08016,0.152169 0.01639,0.445408 0.151051,0.573135 0.03554,0.03378 0.115442,-0.03377 0.151041,0 0.05588,0.05311 0.104386,0.48461 0.151041,0.57313 0.06358,0.120828 0.238407,0.165741 0.302082,0.286568 0.02251,0.04271 -0.03564,0.10951 0,0.143283 0.07118,0.06754 0.16415,0.629005 0.235347,0.696551 0.181071,0.171774 0.398146,0.653329 0.474851,0.871619 0.03189,0.09061 0.168445,0.23394 0.200262,0.324559 0.09349,0.265945 0.307907,0.327647 0.439776,0.577853 0.04502,0.08544 0.235318,0.21378 0.280364,0.299231 0.08796,0.166893 0.09398,-0.357621 0.18194,-0.190715 0.06032,0.114625 -0.06032,0.315223 0,0.429849 0.101158,0.191908 0.280235,0.375841 0.373041,0.463874 0.07118,0.06754 0.0089,0.04171 0.07996,0.109261 0.03564,0.03377 -0.1858,-0.159761 0.151031,0 0.336831,0.159759 -0.04896,0.09681 0.151051,0.286565 0.200035,0.189757 0.262969,0.304836 0.350514,0.387884 0.03564,0.03377 0.231161,-7.52e-4 0.25365,0.04196 0.314323,0.59631 -0.01037,-0.153176 0.302101,0.143284 0.07957,0.07552 0.07138,0.211048 0.151051,0.286567 0.03554,0.03377 0.115443,-0.03378 0.151031,0 0.03564,0.03377 -0.03554,0.10951 0,0.143283 0.03564,0.03377 0.115453,-0.03378 0.151061,0 0.09605,0.09118 0.205672,0.390216 0.302082,0.573132 0.314303,0.596311 -0.01037,-0.153175 0.302091,0.143283 0.07552,0.07164 0.07552,0.214924 0.151041,0.286567 0.07118,0.06754 0.230895,-0.06754 0.302082,0 0.03564,0.03377 -0.03554,0.109511 0,0.143282 0.07118,0.06754 0.230895,-0.06754 0.302082,0 0.01501,0.01431 0.115818,0.320002 0.302092,0.143283 0.03564,-0.03377 -0.03554,-0.10951 0,-0.143283 0.07118,-0.06754 0.01728,0.320836 0.08845,0.253291 0.140992,-0.133757 0.152186,0.210992 0.275388,0.09411 0.07118,-0.06754 0.230886,-0.211075 0.302082,-0.278621 0.312517,-0.296459 -0.243659,0.275292 0.36467,-0.05861 0.259889,-0.142651 -0.428768,0.828223 0.781899,-0.699779 0.04502,-0.02137 0.222267,-0.16886 0.257855,-0.202633 0.03564,-0.03378 0.418334,-0.08418 0.453913,-0.117954 0.06061,-0.05754 0.234212,-0.15029 0.319634,-0.177305 0.186047,-0.05883 0.597095,-0.533129 0.736892,-0.665756 0.03564,-0.03378 0.364946,-0.236157 0.400535,-0.269929 0.07118,-0.06754 0.309663,-0.320584 0.399725,-0.363299 0.516896,-0.245176 0.57362,-0.644727 0.950502,-1.002236 0.07256,-0.06877 0.16344,-0.577693 0.257056,-0.666505 0.08618,-0.08171 0.370958,-0.290775 0.444761,-0.39583 0.207558,-0.295342 0.180706,-0.360981 0.310473,-0.607153 0.04502,-0.08544 0.275408,-0.403762 0.320404,-0.489198 0.251449,-0.39528 0.281449,-0.228534 0.43482,-0.657068 0.04857,-0.135683 -0.06752,-0.301693 0,-0.429849 0.158702,-0.301117 0.07789,-0.434414 0.151031,-0.573134 0.06506,-0.123361 0.267836,-0.299869 0.302092,-0.429849 0.03653,-0.139005 -0.04768,-0.293922 0,-0.429851 0.01579,-0.04531 0.115443,0.03378 0.151041,0 0.07967,-0.07551 0.100704,-0.191043 0.151061,-0.286565 0.08628,-0.163966 0.245505,-1.092598 0.302091,-1.146267 0.07967,-0.07552 0.234538,-0.05784 0.302082,-0.143282 0.320533,-0.40544 0.01876,-0.483397 0.151031,-0.859701 0.02251,-0.06408 0.128533,-0.0792 0.151051,-0.143284 0.06555,-0.186815 0.08529,-0.386313 0.151041,-0.573131 0.125334,-0.35665 -0.01382,-3.751467 -0.151041,-4.011931 -0.06367,-0.120827 -0.223106,-0.174166 -0.302082,-0.286566 -0.118187,-0.168156 -0.06466,-0.552471 -0.151061,-0.716416 -0.02251,-0.04272 -0.123113,0.03974 -0.151021,0 -0.122224,-0.173889 -0.432717,-1.188843 -0.604193,-1.432831 -0.02784,-0.03975 0.285072,-0.295508 0.249474,-0.32928 -0.126943,-0.120418 -0.345005,-0.372365 -0.400515,-0.530423 -0.02251,-0.06407 -0.128543,-0.0792 -0.151051,-0.143283 -0.345627,-0.983626 0.578339,0.667399 -0.151031,-0.716415 -0.175217,-0.332419 -0.437239,-0.686229 -0.604193,-1.002983 -0.09945,-0.188694 0.07068,-0.515324 0,-0.716416 -0.06644,-0.189404 -0.356852,-0.390494 -0.453113,-0.573132 -0.04581,-0.08683 -0.08776,-0.369809 -0.151061,-0.429852 -0.03564,-0.03377 -0.115442,0.03378 -0.151041,0 -0.07118,-0.06754 0.04502,-0.201128 0,-0.286566 -0.03208,-0.06073 -1.092519,-0.948038 -1.208347,-1.002982 -0.372024,-0.17645 0.136342,0.415913 -0.453132,-0.143283 -0.03564,-0.03377 0.03564,-0.109511 0,-0.143283 -0.03426,-0.03249 -0.647127,-0.352936 -0.755235,-0.42985 -0.396102,-0.281821 -1.254824,-1.368539 -1.661479,-1.432832 -0.24831,-0.03926 -0.690396,-0.329279 -0.94214,-0.329279 z"
       id="path6-1"
       sodipodi:nodetypes="cscsscscccsscsccscsssssssssssssssssssssssssssssssssscccscccszzscsssssssssscssscsscsssssccscccscssscsccscccssccsssssssscssssssc" />
    <rect
       style="fill:none;stroke:#000000;stroke-width:0.220782;stroke-linecap:square;stroke-linejoin:round;stroke-opacity:1;paint-order:stroke fill markers"
       id="rect8-8-7"
       width="54.072914"
       height="38.54319"
       x="56.644897"
       y="41.051273" />
    <text
       xml:space="preserve"
       style="font-size:5.06622px;fill:#000000;fill-opacity:1;stroke:#ececec;stroke-width:0.237608;stroke-linecap:square;stroke-linejoin:round;stroke-dasharray:none;stroke-opacity:1;paint-order:stroke fill markers"
       x="20.677473"
       y="5.5003428"
       id="text16"
       transform="scale(1.1209997,0.8920609)"><tspan
         sodipodi:role="line"
         id="tspan16"
         style="fill:#000000;fill-opacity:1;stroke-width:0.237608"
         x="20.677473"
         y="5.5003428">U</tspan></text>
    <text
       xml:space="preserve"
       style="font-size:5.06622px;fill:#000000;fill-opacity:1;stroke:#ececec;stroke-width:0.237608;stroke-linecap:square;stroke-linejoin:round;stroke-dasharray:none;stroke-opacity:1;paint-order:stroke fill markers"
       x="52.830185"
       y="51.372143"
       id="text16-9"
       transform="scale(1.1209997,0.8920609)"><tspan
         sodipodi:role="line"
         id="tspan16-6"
         style="fill:#000000;fill-opacity:1;stroke-width:0.237608"
         x="52.830185"
         y="51.372143">U</tspan></text>
    <text
       xml:space="preserve"
       style="font-size:5.06622px;fill:#000000;fill-opacity:1;stroke:#ececec;stroke-width:0.237608;stroke-linecap:square;stroke-linejoin:round;stroke-dasharray:none;stroke-opacity:1;paint-order:stroke fill markers"
       x="82.75824"
       y="6.439517"
       id="text16-1"
       transform="scale(1.1209997,0.8920609)"><tspan
         sodipodi:role="line"
         id="tspan16-4"
         style="fill:#000000;fill-opacity:1;stroke-width:0.237608"
         x="82.75824"
         y="6.439517">U</tspan></text>
  </g>
</svg>
